ivan@Ivans-MacBook-Pro ~ % ffmpeg -f avfoundation -i 1 output.mp4 -v verbose
ffmpeg version 7.0.1 Copyright (c) 2000-2024 the FFmpeg developers
  built with Apple clang version 15.0.0 (clang-1500.3.9.4)
  configuration: --prefix=/opt/homebrew/Cellar/ffmpeg/7.0.1 --enable-shared --enable-pthreads --enable-version3 --cc=clang --host-cflags= --host-ldflags='-Wl,-ld_classic' --enable-ffplay --enable-gnutls --enable-gpl --enable-libaom --enable-libaribb24 --enable-libbluray --enable-libdav1d --enable-libharfbuzz --enable-libjxl --enable-libmp3lame --enable-libopus --enable-librav1e --enable-librist --enable-librubberband --enable-libsnappy --enable-libsrt --enable-libssh --enable-libsvtav1 --enable-libtesseract --enable-libtheora --enable-libvidstab --enable-libvmaf --enable-libvorbis --enable-libvpx --enable-libwebp --enable-libx264 --enable-libx265 --enable-libxml2 --enable-libxvid --enable-lzma --enable-libfontconfig --enable-libfreetype --enable-frei0r --enable-libass --enable-libopencore-amrnb --enable-libopencore-amrwb --enable-libopenjpeg --enable-libspeex --enable-libsoxr --enable-libzmq --enable-libzimg --disable-libjack --disable-indev=jack --enable-videotoolbox --enable-audiotoolbox --enable-neon
  libavutil      59.  8.100 / 59.  8.100
  libavcodec     61.  3.100 / 61.  3.100
  libavformat    61.  1.100 / 61.  1.100
  libavdevice    61.  1.100 / 61.  1.100
  libavfilter    10.  1.100 / 10.  1.100
  libswscale      8.  1.100 /  8.  1.100
  libswresample   5.  1.100 /  5.  1.100
  libpostproc    58.  1.100 / 58.  1.100
2024-07-03 13:10:15.301 ffmpeg[36756:3401079] WARNING: Add NSCameraUseContinuityCameraDeviceType to your Info.plist to use AVCaptureDeviceTypeContinuityCamera.
objc[36756]: class `NSKVONotifying_AVCaptureScreenInput' not linked into application
objc[36756]: class `NSKVONotifying_AVCaptureScreenInput' not linked into application
objc[36756]: class `NSKVONotifying_AVCaptureScreenInput' not linked into application
[AVFoundation indev @ 0x13ff04ee0] Configuration of video device failed, falling back to default.
[avfoundation @ 0x13ff04c80] Selected pixel format (yuv420p) is not supported by the input device.
[avfoundation @ 0x13ff04c80] Supported pixel formats:
[avfoundation @ 0x13ff04c80]   uyvy422
[avfoundation @ 0x13ff04c80]   yuyv422
[avfoundation @ 0x13ff04c80]   nv12
[avfoundation @ 0x13ff04c80]   0rgb
[avfoundation @ 0x13ff04c80]   bgr0
[avfoundation @ 0x13ff04c80] Overriding selected pixel format to use uyvy422 instead.
[avfoundation @ 0x13ff04c80] Stream #0: not enough frames to estimate rate; consider increasing probesize
Input #0, avfoundation, from '1':
  Duration: N/A, start: 333157.618833, bitrate: N/A
  Stream #0:0: Video: rawvideo, 1 reference frame (UYVY / 0x59565955), uyvy422, 3024x1964, 1000k tbr, 1000k tbn
[out#0/mp4 @ 0x600000abde00] No explicit maps, mapping streams automatically...
[vost#0:0/libx264 @ 0x13fe125b0] Created video stream from input stream 0:0
Stream mapping:
  Stream #0:0 -> #0:0 (rawvideo (native) -> h264 (libx264))
[vost#0:0/libx264 @ 0x13fe125b0] Starting thread...
[vf#0:0 @ 0x600000da8510] Starting thread...
[vist#0:0/rawvideo @ 0x13fe0c520] [dec:rawvideo @ 0x13ff0dfb0] Starting thread...
[in#0/avfoundation @ 0x6000003b8100] Starting thread...
Press [q] to stop, [?] for help
[graph 0 input from stream 0:0 @ 0x6000008bd290] w:3024 h:1964 pixfmt:uyvy422 tb:1/1000000 fr:1000000/1 sar:0/1 csp:unknown range:unknown
[auto_scale_0 @ 0x6000008bd4a0] w:iw h:ih flags:'' interl:0
[format @ 0x6000008bd550] auto-inserting filter 'auto_scale_0' between the filter 'Parsed_null_0' and the filter 'format'
[auto_scale_0 @ 0x6000008bd4a0] w:3024 h:1964 fmt:uyvy422 csp:unknown range:unknown sar:0/1 -> w:3024 h:1964 fmt:yuv422p csp:unknown range:unknown sar:0/1 flags:0x00000004
[graph 0 input from stream 0:0 @ 0x6000008bd290] video frame properties congruent with link at pts_time: 0
[libx264 @ 0x13fe1bc70] MB rate (23247000000) > level limit (16711680)
[libx264 @ 0x13fe1bc70] using cpu capabilities: ARMv8 NEON
[libx264 @ 0x13fe1bc70] profile High 4:2:2, level 6.2, 4:2:2, 8-bit
[libx264 @ 0x13fe1bc70] 264 - core 164 r3108 31e19f9 - H.264/MPEG-4 AVC codec - Copyleft 2003-2023 - http://www.videolan.org/x264.html - options: cabac=1 ref=3 deblock=1:0:0 analyse=0x3:0x113 me=hex subme=7 psy=1 psy_rd=1.00:0.00 mixed_ref=1 me_range=16 chroma_me=1 trellis=1 8x8dct=1 cqm=0 deadzone=21,11 fast_pskip=1 chroma_qp_offset=-2 threads=15 lookahead_threads=2 sliced_threads=0 nr=0 decimate=1 interlaced=0 bluray_compat=0 constrained_intra=0 bframes=3 b_pyramid=2 b_adapt=1 b_bias=0 direct=1 weightb=1 open_gop=0 weightp=2 keyint=250 keyint_min=25 scenecut=40 intra_refresh=0 rc_lookahead=40 rc=crf mbtree=1 crf=23.0 qcomp=0.60 qpmin=0 qpmax=69 qpstep=4 ip_ratio=1.40 aq=1:1.00
Output #0, mp4, to 'output.mp4':
  Metadata:
    encoder         : Lavf61.1.100
  Stream #0:0: Video: h264, 1 reference frame (avc1 / 0x31637661), yuv422p(progressive), 3024x1964, q=2-31, 1000k fps, 1000k tbn
      Metadata:
        encoder         : Lavc61.3.100 libx264
      Side data:
        cpb: bitrate max/min/avg: 0/0/0 buffer size: 0 vbv_delay: N/A
[out#0/mp4 @ 0x600000abde00] Starting thread...
[vost#0:0/libx264 @ 0x13fe125b0] *** 33333 dup!
frame=   29 fps=0.0 q=33.0 size=       0KiB time=00:00:00.00 bitrate=14222.2kbitframe=  119 fps=118 q=33.0 size=       0KiB time=00:00:00.00 bitrate=3282.1kbitsframe=  211 fps=140 q=33.0 size=     256KiB time=00:00:00.00 bitrate=10036057.4kframe=  300 fps=149 q=33.0 size=     512KiB time=00:00:00.00 bitrate=14076134.2kframe=  399 fps=158 q=33.0 size=     512KiB time=00:00:00.00 bitrate=10565964.7kframe=  495 fps=164 q=33.0 size=     512KiB time=00:00:00.00 bitrate=8508494.9kbframe=  585 fps=166 q=33.0 size=     768KiB time=00:00:00.00 bitrate=10792178.4kbits/s dup=33333 drop=0 speed=0.000165x

[q] command received. Exiting.